<svg width="22" height="23" viewBox="0 0 22 23" fill="none" xmlns="http://www.w3.org/2000/svg">
<path d="M11 22.5C10.5532 22.4968 10.1126 22.3515 9.71001 22.0748C9.30743 21.798 8.95302 21.3967 8.6725 20.9L1.305 8.15C0.874489 7.38242 0.603574 6.45751 0.523129 5.48067C0.442683 4.50383 0.555942 3.51436 0.849999 2.625C1.08849 1.85207 1.47768 1.19353 1.97108 0.728056C2.46449 0.262579 3.04126 0.00983264 3.6325 0H18.3675C18.9587 0.00983264 19.5355 0.262579 20.0289 0.728056C20.5223 1.19353 20.9115 1.85207 21.15 2.625C21.4441 3.51436 21.5573 4.50383 21.4769 5.48067C21.3964 6.45751 21.1255 7.38242 20.695 8.15L13.3275 20.9C13.047 21.3967 12.6926 21.798 12.29 22.0748C11.8874 22.3515 11.4468 22.4968 11 22.5Z" fill="#231F20"/>
</svg>
